<?xml version="1.0" encoding="UTF-8"?>
<!DOCTYPE svg PUBLIC "-//W3C//DTD SVG 1.1//EN" "http://www.w3.org/Graphics/SVG/1.1/DTD/svg11.dtd">
<svg xmlns="http://www.w3.org/2000/svg" version="1.1" width="666px" height="375px" style="shape-rendering:geometricPrecision; text-rendering:geometricPrecision; image-rendering:optimizeQuality; fill-rule:evenodd; clip-rule:evenodd" xmlns:xlink="http://www.w3.org/1999/xlink">
<g><path style="opacity:0.459" fill="#969696" d="M 221.5,164.5 C 218.396,163.225 215.396,163.225 212.5,164.5C 211.957,164.44 211.624,164.107 211.5,163.5C 213.167,163.167 214.833,162.833 216.5,162.5C 218.64,162.556 220.306,163.223 221.5,164.5 Z"/></g>
<g><path style="opacity:0.455" fill="#939393" d="M 233.5,164.5 C 230.604,163.225 227.604,163.225 224.5,164.5C 225.694,163.223 227.36,162.556 229.5,162.5C 231.167,162.833 232.833,163.167 234.5,163.5C 234.376,164.107 234.043,164.44 233.5,164.5 Z"/></g>
<g><path style="opacity:0.408" fill="#9e9e9e" d="M 255.5,162.5 C 255.5,162.833 255.5,163.167 255.5,163.5C 249.167,163.5 242.833,163.5 236.5,163.5C 236.5,166.167 236.5,168.833 236.5,171.5C 235.523,168.713 235.19,165.713 235.5,162.5C 242.167,162.5 248.833,162.5 255.5,162.5 Z"/></g>
<g><path style="opacity:0.399" fill="#999999" d="M 492.5,163.5 C 495.287,162.523 498.287,162.19 501.5,162.5C 501.784,164.415 501.451,166.081 500.5,167.5C 500.5,166.167 500.5,164.833 500.5,163.5C 497.833,163.5 495.167,163.5 492.5,163.5 Z"/></g>
<g><path style="opacity:0.243" fill="#b3b3b3" d="M 174.5,163.5 C 171.5,163.5 168.5,163.5 165.5,163.5C 165.5,178.167 165.5,192.833 165.5,207.5C 164.504,192.676 164.171,177.676 164.5,162.5C 168.042,162.187 171.375,162.521 174.5,163.5 Z"/></g>
<g><path style="opacity:1" fill="#060606" d="M 174.5,163.5 C 176.375,168.206 177.375,173.206 177.5,178.5C 177.215,180.288 177.548,181.955 178.5,183.5C 179.497,176.866 179.83,170.2 179.5,163.5C 181.833,163.5 184.167,163.5 186.5,163.5C 186.5,178.167 186.5,192.833 186.5,207.5C 183.5,207.5 180.5,207.5 177.5,207.5C 176.963,202.149 176.296,196.816 175.5,191.5C 175.005,189.518 174.505,187.518 174,185.5C 173.5,192.826 173.334,200.159 173.5,207.5C 170.833,207.5 168.167,207.5 165.5,207.5C 165.5,192.833 165.5,178.167 165.5,163.5C 168.5,163.5 171.5,163.5 174.5,163.5 Z"/></g>
<g><path style="opacity:0.726" fill="#474747" d="M 186.5,207.5 C 186.5,192.833 186.5,178.167 186.5,163.5C 184.167,163.5 181.833,163.5 179.5,163.5C 179.83,170.2 179.497,176.866 178.5,183.5C 177.548,181.955 177.215,180.288 177.5,178.5C 178.488,173.36 178.821,168.026 178.5,162.5C 181.5,162.5 184.5,162.5 187.5,162.5C 187.829,177.676 187.496,192.676 186.5,207.5 Z"/></g>
<g><path style="opacity:0.515" fill="#868686" d="M 200.5,172.5 C 202.948,171.527 205.615,171.194 208.5,171.5C 208.5,168.833 208.5,166.167 208.5,163.5C 202.833,163.5 197.167,163.5 191.5,163.5C 191.5,178.167 191.5,192.833 191.5,207.5C 190.504,192.676 190.171,177.676 190.5,162.5C 196.833,162.5 203.167,162.5 209.5,162.5C 209.5,165.833 209.5,169.167 209.5,172.5C 206.5,172.5 203.5,172.5 200.5,172.5 Z"/></g>
<g><path style="opacity:1" fill="#0c0c0c" d="M 200.5,172.5 C 200.5,174.833 200.5,177.167 200.5,179.5C 203.167,179.5 205.833,179.5 208.5,179.5C 208.5,182.833 208.5,186.167 208.5,189.5C 205.833,189.5 203.167,189.5 200.5,189.5C 200.5,192.5 200.5,195.5 200.5,198.5C 203.5,198.5 206.5,198.5 209.5,198.5C 209.5,201.5 209.5,204.5 209.5,207.5C 203.5,207.5 197.5,207.5 191.5,207.5C 191.5,192.833 191.5,178.167 191.5,163.5C 197.167,163.5 202.833,163.5 208.5,163.5C 208.5,166.167 208.5,168.833 208.5,171.5C 205.615,171.194 202.948,171.527 200.5,172.5 Z"/></g>
<g><path style="opacity:1" fill="#171717" d="M 221.5,164.5 C 222.5,177.833 223.5,177.833 224.5,164.5C 227.604,163.225 230.604,163.225 233.5,164.5C 232.89,170.885 231.89,177.218 230.5,183.5C 231.914,191.572 233.581,199.572 235.5,207.5C 231.894,207.789 228.394,207.456 225,206.5C 224.427,202.152 223.76,197.819 223,193.5C 222.427,197.848 221.76,202.181 221,206.5C 217.943,207.451 214.777,207.784 211.5,207.5C 211.5,207.167 211.5,206.833 211.5,206.5C 212.508,198.788 213.841,191.121 215.5,183.5C 214.11,177.218 213.11,170.885 212.5,164.5C 215.396,163.225 218.396,163.225 221.5,164.5 Z"/></g>
<g><path style="opacity:1" fill="#070707" d="M 255.5,163.5 C 255.5,166.167 255.5,168.833 255.5,171.5C 253.585,171.216 251.919,171.549 250.5,172.5C 250.5,184.167 250.5,195.833 250.5,207.5C 247.5,207.5 244.5,207.5 241.5,207.5C 241.5,195.5 241.5,183.5 241.5,171.5C 239.833,171.5 238.167,171.5 236.5,171.5C 236.5,168.833 236.5,166.167 236.5,163.5C 242.833,163.5 249.167,163.5 255.5,163.5 Z"/></g>
<g><path style="opacity:0.101" fill="#e1e1e1" d="M 255.5,162.5 C 256.479,165.625 256.813,168.958 256.5,172.5C 254.5,172.5 252.5,172.5 250.5,172.5C 251.919,171.549 253.585,171.216 255.5,171.5C 255.5,168.833 255.5,166.167 255.5,163.5C 255.5,163.167 255.5,162.833 255.5,162.5 Z"/></g>
<g><path style="opacity:0.565" fill="#6c6c6c" d="M 269.5,163.5 C 269.833,163.5 270.167,163.5 270.5,163.5C 271.146,175.88 270.479,187.88 268.5,199.5C 269.479,187.58 269.812,175.58 269.5,163.5 Z"/></g>
<g><path style="opacity:1" fill="#0a0a0a" d="M 270.5,163.5 C 273.167,163.5 275.833,163.5 278.5,163.5C 278.5,175.833 278.5,188.167 278.5,200.5C 277.027,205.669 273.527,208.336 268,208.5C 262.24,208.553 258.74,205.886 257.5,200.5C 257.5,195.833 257.5,191.167 257.5,186.5C 260.167,186.5 262.833,186.5 265.5,186.5C 265.183,190.702 265.517,194.702 266.5,198.5C 266.842,199.338 267.508,199.672 268.5,199.5C 270.479,187.88 271.146,175.88 270.5,163.5 Z"/></g>
<g><path style="opacity:0.366" fill="#a1a1a1" d="M 269.5,163.5 C 272.625,162.521 275.958,162.187 279.5,162.5C 279.829,175.344 279.495,188.011 278.5,200.5C 278.5,188.167 278.5,175.833 278.5,163.5C 275.833,163.5 273.167,163.5 270.5,163.5C 270.167,163.5 269.833,163.5 269.5,163.5 Z"/></g>
<g><path style="opacity:1" fill="#191919" d="M 302.5,172.5 C 302.5,173.5 302.5,174.5 302.5,175.5C 299.5,175.5 296.5,175.5 293.5,175.5C 293.778,173.654 293.111,172.32 291.5,171.5C 290.386,172.723 290.219,174.056 291,175.5C 296.168,179.657 300.168,184.657 303,190.5C 305.764,205.407 299.931,210.907 285.5,207C 282.679,204.859 281.346,202.025 281.5,198.5C 281.5,196.167 281.5,193.833 281.5,191.5C 284.167,191.5 286.833,191.5 289.5,191.5C 289.198,194.059 289.532,196.393 290.5,198.5C 291.15,198.804 291.817,199.137 292.5,199.5C 293.647,197.235 293.814,194.902 293,192.5C 289.333,188.167 285.667,183.833 282,179.5C 279.127,164.046 285.127,159.046 300,164.5C 301.707,166.909 302.54,169.575 302.5,172.5 Z"/></g>
<g><path style="opacity:1" fill="#161616" d="M 368.5,169.5 C 368.5,171.5 368.5,173.5 368.5,175.5C 365.833,175.5 363.167,175.5 360.5,175.5C 360.768,173.901 360.434,172.568 359.5,171.5C 356.116,172.63 356.116,174.297 359.5,176.5C 359.5,176.833 359.5,177.167 359.5,177.5C 359.5,179.5 360.5,180.5 362.5,180.5C 365.559,182.397 367.726,185.064 369,188.5C 369.839,193.921 369.506,199.254 368,204.5C 362.364,209.477 356.364,209.81 350,205.5C 348.991,203.975 348.491,202.308 348.5,200.5C 348.5,197.5 348.5,194.5 348.5,191.5C 351.167,191.5 353.833,191.5 356.5,191.5C 356.198,194.059 356.532,196.393 357.5,198.5C 359.559,199.646 360.559,198.813 360.5,196C 360.387,193.601 359.387,191.768 357.5,190.5C 354.502,187.333 351.669,184 349,180.5C 344.808,167.032 349.642,161.199 363.5,163C 366.534,164.191 368.201,166.358 368.5,169.5 Z"/></g>
<g><path style="opacity:1" fill="#101010" d="M 372.5,163.5 C 375.5,163.5 378.5,163.5 381.5,163.5C 381.179,168.695 381.513,173.695 382.5,178.5C 383.5,178.5 384.5,178.5 385.5,178.5C 385.5,173.167 385.5,167.833 385.5,162.5C 388.5,162.5 391.5,162.5 394.5,162.5C 394.5,177.5 394.5,192.5 394.5,207.5C 391.5,207.5 388.5,207.5 385.5,207.5C 385.5,200.833 385.5,194.167 385.5,187.5C 384.5,187.5 383.5,187.5 382.5,187.5C 382.5,194.167 382.5,200.833 382.5,207.5C 379.167,207.5 375.833,207.5 372.5,207.5C 372.5,192.833 372.5,178.167 372.5,163.5 Z"/></g>
<g><path style="opacity:0.02" fill="#d6d6d6" d="M 372.5,163.5 C 375.625,162.521 378.958,162.187 382.5,162.5C 382.5,167.833 382.5,173.167 382.5,178.5C 381.513,173.695 381.179,168.695 381.5,163.5C 378.5,163.5 375.5,163.5 372.5,163.5 Z"/></g>
<g><path style="opacity:1" fill="#1a1a1a" d="M 403.5,162.5 C 407.182,162.335 410.848,162.501 414.5,163C 417.663,164.48 419.496,166.98 420,170.5C 420.667,180.167 420.667,189.833 420,199.5C 416.912,207.984 411.079,210.484 402.5,207C 399.819,204.806 398.319,201.973 398,198.5C 397.333,189.5 397.333,180.5 398,171.5C 398.339,167.47 400.173,164.47 403.5,162.5 Z M 410.5,171.5 C 410.805,180.917 410.472,190.25 409.5,199.5C 408.883,199.389 408.383,199.056 408,198.5C 407.5,189.506 407.334,180.506 407.5,171.5C 408.5,171.5 409.5,171.5 410.5,171.5 Z"/></g>
<g><path style="opacity:0.769" fill="#4b4b4b" d="M 438.5,163.5 C 433.833,163.5 429.167,163.5 424.5,163.5C 424.5,178.167 424.5,192.833 424.5,207.5C 423.504,192.676 423.171,177.676 423.5,162.5C 428.695,162.179 433.695,162.513 438.5,163.5 Z"/></g>
<g><path style="opacity:1" fill="#0f0f0f" d="M 438.5,163.5 C 442.453,164.015 444.619,166.348 445,170.5C 445.667,174.833 445.667,179.167 445,183.5C 442.898,189.305 438.731,191.639 432.5,190.5C 432.5,196.167 432.5,201.833 432.5,207.5C 429.833,207.5 427.167,207.5 424.5,207.5C 424.5,192.833 424.5,178.167 424.5,163.5C 429.167,163.5 433.833,163.5 438.5,163.5 Z M 432.5,171.5 C 433.496,171.414 434.329,171.748 435,172.5C 435.667,175.167 435.667,177.833 435,180.5C 434.586,180.957 434.086,181.291 433.5,181.5C 432.513,178.232 432.18,174.898 432.5,171.5 Z"/></g>
<g><path style="opacity:1" fill="#0a0a0a" d="M 447.5,162.5 C 450.5,162.5 453.5,162.5 456.5,162.5C 456.5,177.5 456.5,192.5 456.5,207.5C 453.102,207.82 449.768,207.487 446.5,206.5C 447.483,191.882 447.817,177.215 447.5,162.5 Z"/></g>
<g><path style="opacity:0.692" fill="#5d5d5d" d="M 477.5,163.5 C 471.833,163.5 466.167,163.5 460.5,163.5C 460.5,178.167 460.5,192.833 460.5,207.5C 459.504,192.676 459.171,177.676 459.5,162.5C 465.69,162.177 471.69,162.51 477.5,163.5 Z"/></g>
<g><path style="opacity:1" fill="#0c0c0c" d="M 477.5,163.5 C 477.5,166.167 477.5,168.833 477.5,171.5C 474.5,171.5 471.5,171.5 468.5,171.5C 468.198,174.059 468.532,176.393 469.5,178.5C 472.167,178.5 474.833,178.5 477.5,178.5C 477.5,181.5 477.5,184.5 477.5,187.5C 474.833,187.5 472.167,187.5 469.5,187.5C 469.5,194.167 469.5,200.833 469.5,207.5C 466.5,207.5 463.5,207.5 460.5,207.5C 460.5,192.833 460.5,178.167 460.5,163.5C 466.167,163.5 471.833,163.5 477.5,163.5 Z"/></g>
<g><path style="opacity:0.025" fill="#c8c8c8" d="M 487.5,163.5 C 484.302,162.964 481.635,163.631 479.5,165.5C 478.833,167.5 478.167,169.5 477.5,171.5C 477.5,168.833 477.5,166.167 477.5,163.5C 480.936,162.218 484.269,162.218 487.5,163.5 Z"/></g>
<g><path style="opacity:1" fill="#171717" d="M 487.5,163.5 C 488.639,167.301 489.472,171.301 490,175.5C 490.731,171.435 491.565,167.435 492.5,163.5C 495.167,163.5 497.833,163.5 500.5,163.5C 500.5,164.833 500.5,166.167 500.5,167.5C 498.734,175.494 496.901,183.494 495,191.5C 494.501,196.823 494.334,202.156 494.5,207.5C 491.5,207.5 488.5,207.5 485.5,207.5C 485.666,201.824 485.499,196.157 485,190.5C 482.971,182.185 481.137,173.851 479.5,165.5C 481.635,163.631 484.302,162.964 487.5,163.5 Z"/></g>
<g><path style="opacity:0.193" fill="#c2c2c2" d="M 477.5,171.5 C 475.052,172.473 472.385,172.806 469.5,172.5C 469.5,174.5 469.5,176.5 469.5,178.5C 468.532,176.393 468.198,174.059 468.5,171.5C 471.5,171.5 474.5,171.5 477.5,171.5 Z"/></g>
<g><path style="opacity:0.145" fill="#d2d2d2" d="M 236.5,171.5 C 238.167,171.5 239.833,171.5 241.5,171.5C 241.5,183.5 241.5,195.5 241.5,207.5C 240.505,196.012 240.172,184.345 240.5,172.5C 238.901,172.768 237.568,172.434 236.5,171.5 Z"/></g>
<g><path style="opacity:0.444" fill="#7f7f7f" d="M 410.5,171.5 C 411.166,175.988 411.499,180.654 411.5,185.5C 411.493,190.551 410.827,195.217 409.5,199.5C 410.472,190.25 410.805,180.917 410.5,171.5 Z"/></g>
<g><path style="opacity:0.128" fill="#d9d9d9" d="M 302.5,172.5 C 303.434,173.568 303.768,174.901 303.5,176.5C 299.958,176.813 296.625,176.479 293.5,175.5C 296.5,175.5 299.5,175.5 302.5,175.5C 302.5,174.5 302.5,173.5 302.5,172.5 Z"/></g>
<g><path style="opacity:0.117" fill="#b9b9b9" d="M 368.5,169.5 C 369.468,171.607 369.802,173.941 369.5,176.5C 366.167,176.5 362.833,176.5 359.5,176.5C 359.5,174.833 359.5,173.167 359.5,171.5C 360.434,172.568 360.768,173.901 360.5,175.5C 363.167,175.5 365.833,175.5 368.5,175.5C 368.5,173.5 368.5,171.5 368.5,169.5 Z"/></g>
<g><path style="opacity:0.859" fill="#848484" d="M 359.5,177.5 C 360.833,178.167 361.833,179.167 362.5,180.5C 360.5,180.5 359.5,179.5 359.5,177.5 Z"/></g>
<g><path style="opacity:0.999" fill="#212121" d="M 322.5,182.5 C 324.5,182.5 326.5,182.5 328.5,182.5C 328.5,184.5 328.5,186.5 328.5,188.5C 330.5,188.5 332.5,188.5 334.5,188.5C 334.5,190.5 334.5,192.5 334.5,194.5C 332.5,194.5 330.5,194.5 328.5,194.5C 328.5,196.5 328.5,198.5 328.5,200.5C 326.5,200.5 324.5,200.5 322.5,200.5C 322.5,198.5 322.5,196.5 322.5,194.5C 320.5,194.5 318.5,194.5 316.5,194.5C 316.5,192.5 316.5,190.5 316.5,188.5C 318.5,188.5 320.5,188.5 322.5,188.5C 322.5,186.5 322.5,184.5 322.5,182.5 Z"/></g>
<g><path style="opacity:0.247" fill="#b2b2b2" d="M 266.5,198.5 C 265.517,194.702 265.183,190.702 265.5,186.5C 262.833,186.5 260.167,186.5 257.5,186.5C 257.5,191.167 257.5,195.833 257.5,200.5C 256.513,195.695 256.179,190.695 256.5,185.5C 259.833,185.5 263.167,185.5 266.5,185.5C 266.5,189.833 266.5,194.167 266.5,198.5 Z"/></g>
<g><path style="opacity:0.404" fill="#8d8d8d" d="M 175.5,191.5 C 174.833,196.833 174.167,202.167 173.5,207.5C 173.334,200.159 173.5,192.826 174,185.5C 174.505,187.518 175.005,189.518 175.5,191.5 Z"/></g>
<g><path style="opacity:0.529" fill="#848484" d="M 290.5,198.5 C 289.532,196.393 289.198,194.059 289.5,191.5C 286.833,191.5 284.167,191.5 281.5,191.5C 281.5,193.833 281.5,196.167 281.5,198.5C 280.527,196.052 280.194,193.385 280.5,190.5C 283.833,190.5 287.167,190.5 290.5,190.5C 290.5,193.167 290.5,195.833 290.5,198.5 Z"/></g>
<g><path style="opacity:0.617" fill="#888888" d="M 357.5,190.5 C 357.5,193.167 357.5,195.833 357.5,198.5C 356.532,196.393 356.198,194.059 356.5,191.5C 353.833,191.5 351.167,191.5 348.5,191.5C 348.5,194.5 348.5,197.5 348.5,200.5C 347.521,197.375 347.187,194.042 347.5,190.5C 350.833,190.5 354.167,190.5 357.5,190.5 Z"/></g>
<g><path style="opacity:0.108" fill="#dadada" d="M 209.5,198.5 C 210.167,201.167 210.833,203.833 211.5,206.5C 211.5,206.833 211.5,207.167 211.5,207.5C 210.833,207.5 210.167,207.5 209.5,207.5C 209.5,204.5 209.5,201.5 209.5,198.5 Z"/></g>
</svg>
